<svg id="Ebene_1" data-name="Ebene 1" xmlns="http://www.w3.org/2000/svg" viewBox="0 0 1080 1080"><defs><style>.cls-1{fill:#4d4d4d;}.cls-2{fill:#010101;}.cls-3{fill:#808181;}</style></defs><path class="cls-1" d="M1080,756V252L587,0V193.5l193.13,99c7.62,4.5,7.62,13.5,0,15.75l-228.7,117c-7.63,4.5-15.25,2.25-20.33,0l-228.71-117c-7.62-2.25-7.62-13.5,0-15.75l193.13-99V0L0,252V756l188.05-96.75v-198c0-6.75,10.16-11.25,15.24-9L432,569.25c7.62,4.5,10.16,9,10.16,15.75V819c0,6.75-10.16,11.25-15.24,9L233.79,729l-188,96.75,493,254.25,493-252L843.67,731.25l-193.13,99c-7.62,4.5-15.25,0-15.25-9v-234c0-6.75,5.09-13.5,10.17-15.75l228.7-117c7.63-4.5,15.25,0,15.25,9v198Z"/><path class="cls-2" d="M538.73,1080l493-252L843.67,731.25l-193.13,99c-7.62,4.5-15.25,0-15.25-9v-234c0-6.75,5.09-13.5,10.17-15.75l228.7-117c7.63-4.5,15.25,0,15.25,9v198l188.05,96.75V252L538.73,528.75Z"/><path class="cls-3" d="M587,0V193.5l193.13,99c7.62,4.5,7.62,13.5,0,15.75l-228.7,117c-7.63,4.5-15.25,2.25-20.33,0l-228.71-117c-7.62-2.25-7.62-13.5,0-15.75l193.13-99V0L0,252,538.73,528.75,1077.46,252Z"/><path class="cls-1" d="M429.46,830.25l-193.13-99L48.28,828l493,252V528.75L0,252V756l188.05-96.75v-198c0-6.75,10.16-11.25,15.24-9L432,569.25c7.62,4.5,10.16,9,10.16,15.75V819C444.71,828,437.08,834.75,429.46,830.25Z"/></svg>